<mxfile host="65bd71144e">
    <diagram name="Page-1" id="iFuYT253LAI2cr_2TafU">
        <mxGraphModel dx="2246" dy="1006" grid="0" gridSize="10" guides="1" tooltips="1" connect="1" arrows="1" fold="1" page="1" pageScale="1" pageWidth="850" pageHeight="1100" background="#ffffff" math="0" shadow="0">
            <root>
                <mxCell id="0"/>
                <mxCell id="1" parent="0"/>
                <mxCell id="8" value="" style="group" vertex="1" connectable="0" parent="1">
                    <mxGeometry x="-838" y="19" width="820" height="640" as="geometry"/>
                </mxCell>
                <mxCell id="umGk_1h2bwM0Oz5YRKmP-20" value="" style="shape=cylinder3;whiteSpace=wrap;html=1;boundedLbl=1;backgroundOutline=1;size=15;container=0;fontSize=22;fillColor=#E6E6E6;strokeColor=#000000;fillStyle=solid;" parent="8" vertex="1">
                    <mxGeometry x="360" y="472" width="60" height="40" as="geometry"/>
                </mxCell>
                <mxCell id="umGk_1h2bwM0Oz5YRKmP-2" value="" style="rounded=1;whiteSpace=wrap;html=1;strokeWidth=2;strokeColor=#66B2FF;container=0;fillColor=none;fontSize=22;" parent="8" vertex="1">
                    <mxGeometry x="50" y="40" width="770" height="370" as="geometry"/>
                </mxCell>
                <mxCell id="umGk_1h2bwM0Oz5YRKmP-3" value="&lt;font color=&quot;#cc6600&quot; style=&quot;font-size: 22px;&quot;&gt;device&amp;nbsp;&lt;/font&gt;&lt;div style=&quot;font-size: 22px;&quot;&gt;&lt;font color=&quot;#cc6600&quot; style=&quot;font-size: 22px;&quot;&gt;interface&lt;/font&gt;&lt;/div&gt;" style="rounded=1;whiteSpace=wrap;html=1;strokeColor=#d88322;strokeWidth=2;container=0;fontSize=22;fillColor=none;" parent="8" vertex="1">
                    <mxGeometry x="110" y="60" width="190" height="90" as="geometry"/>
                </mxCell>
                <mxCell id="umGk_1h2bwM0Oz5YRKmP-4" value="&lt;span style=&quot;font-size: 22px;&quot;&gt;&lt;font color=&quot;#ff00ff&quot; style=&quot;font-size: 22px;&quot;&gt;INDI&lt;/font&gt;&lt;/span&gt;&lt;div style=&quot;font-size: 22px;&quot;&gt;&lt;span style=&quot;font-size: 22px;&quot;&gt;&lt;font color=&quot;#ff00ff&quot; style=&quot;font-size: 22px;&quot;&gt;soft-RT IPC&lt;/font&gt;&lt;/span&gt;&lt;/div&gt;" style="rounded=1;whiteSpace=wrap;html=1;strokeColor=#CC00CC;strokeWidth=2;container=0;fontSize=22;fillColor=none;" parent="8" vertex="1">
                    <mxGeometry x="325" y="60" width="205" height="90" as="geometry"/>
                </mxCell>
                <mxCell id="umGk_1h2bwM0Oz5YRKmP-5" value="&lt;span style=&quot;font-size: 22px;&quot;&gt;&lt;font style=&quot;font-size: 22px;&quot;&gt;ISIO&lt;/font&gt;&lt;/span&gt;&lt;div style=&quot;font-size: 22px;&quot;&gt;&lt;span style=&quot;font-size: 22px;&quot;&gt;&lt;font style=&quot;font-size: 22px;&quot;&gt;low-latency IPC&lt;/font&gt;&lt;/span&gt;&lt;/div&gt;" style="rounded=1;whiteSpace=wrap;html=1;strokeColor=#008700;strokeWidth=2;container=0;fontSize=22;fillColor=none;fontColor=#008700;" parent="8" vertex="1">
                    <mxGeometry x="555" y="60" width="205" height="90" as="geometry"/>
                </mxCell>
                <mxCell id="umGk_1h2bwM0Oz5YRKmP-7" value="&lt;font style=&quot;font-size: 22px;&quot;&gt;Event Loop&lt;/font&gt;" style="rounded=1;whiteSpace=wrap;html=1;container=0;fontSize=22;fillColor=none;fontColor=#000000;strokeColor=#000000;" parent="8" vertex="1">
                    <mxGeometry x="110" y="200" width="250" height="110" as="geometry"/>
                </mxCell>
                <mxCell id="umGk_1h2bwM0Oz5YRKmP-8" value="&lt;font style=&quot;font-size: 22px;&quot;&gt;low-latency thread(s)&lt;/font&gt;&lt;div style=&quot;font-size: 22px;&quot;&gt;&lt;font style=&quot;font-size: 22px;&quot;&gt;(cpu isolated, r/t priority, etc.)&lt;/font&gt;&lt;/div&gt;" style="rounded=1;whiteSpace=wrap;html=1;container=0;fontSize=22;fillColor=none;fontColor=#000000;strokeColor=#000000;" parent="8" vertex="1">
                    <mxGeometry x="410" y="200" width="350" height="110" as="geometry"/>
                </mxCell>
                <mxCell id="umGk_1h2bwM0Oz5YRKmP-10" value="&lt;font style=&quot;font-size: 22px;&quot;&gt;usb, RS232, modbus, telnet, PCIe, etc.&lt;/font&gt;" style="rounded=1;whiteSpace=wrap;html=1;strokeColor=#CC6600;strokeWidth=2;fontColor=#CC6600;container=0;fontSize=22;fillColor=none;" parent="8" vertex="1">
                    <mxGeometry x="90" y="430" width="240" height="90" as="geometry"/>
                </mxCell>
                <mxCell id="umGk_1h2bwM0Oz5YRKmP-12" value="" style="endArrow=classic;startArrow=classic;html=1;rounded=0;entryX=0;entryY=0.5;entryDx=0;entryDy=0;strokeColor=#CC6600;strokeWidth=3;fontSize=22;" parent="8" target="umGk_1h2bwM0Oz5YRKmP-3" edge="1">
                    <mxGeometry width="50" height="50" relative="1" as="geometry">
                        <mxPoint x="90" y="480" as="sourcePoint"/>
                        <mxPoint x="510" y="120" as="targetPoint"/>
                        <Array as="points">
                            <mxPoint y="480"/>
                            <mxPoint y="105"/>
                        </Array>
                    </mxGeometry>
                </mxCell>
                <mxCell id="umGk_1h2bwM0Oz5YRKmP-15" value="&lt;font style=&quot;font-size: 22px;&quot;&gt;config&lt;/font&gt;" style="rounded=1;whiteSpace=wrap;html=1;container=0;fontSize=22;fillColor=none;strokeColor=#000000;fontColor=#000000;" parent="8" vertex="1">
                    <mxGeometry x="320" y="362" width="140" height="40" as="geometry"/>
                </mxCell>
                <mxCell id="umGk_1h2bwM0Oz5YRKmP-16" value="logs" style="rounded=1;whiteSpace=wrap;html=1;container=0;fontSize=22;fillColor=none;strokeColor=#000000;fontColor=#000000;" parent="8" vertex="1">
                    <mxGeometry x="480" y="362" width="140" height="40" as="geometry"/>
                </mxCell>
                <mxCell id="umGk_1h2bwM0Oz5YRKmP-17" value="&lt;span style=&quot;font-size: 22px;&quot;&gt;telemetry&lt;/span&gt;" style="rounded=1;whiteSpace=wrap;html=1;container=0;fontSize=22;fillColor=none;strokeColor=#000000;fontColor=#000000;" parent="8" vertex="1">
                    <mxGeometry x="640" y="362" width="140" height="40" as="geometry"/>
                </mxCell>
                <mxCell id="umGk_1h2bwM0Oz5YRKmP-19" value="" style="shape=cylinder3;whiteSpace=wrap;html=1;boundedLbl=1;backgroundOutline=1;size=15;container=0;fontSize=22;fillColor=#E6E6E6;strokeColor=#000000;fillStyle=solid;" parent="8" vertex="1">
                    <mxGeometry x="360" y="462" width="60" height="40" as="geometry"/>
                </mxCell>
                <mxCell id="umGk_1h2bwM0Oz5YRKmP-18" value="" style="shape=cylinder3;whiteSpace=wrap;html=1;boundedLbl=1;backgroundOutline=1;size=15;container=0;fontSize=22;fillColor=#E6E6E6;strokeColor=#000000;fillStyle=solid;" parent="8" vertex="1">
                    <mxGeometry x="360" y="442" width="60" height="40" as="geometry"/>
                </mxCell>
                <mxCell id="umGk_1h2bwM0Oz5YRKmP-21" value="" style="shape=cylinder3;whiteSpace=wrap;html=1;boundedLbl=1;backgroundOutline=1;size=15;container=0;fontSize=22;fillColor=#E6E6E6;strokeColor=#000000;fillStyle=solid;" parent="8" vertex="1">
                    <mxGeometry x="520" y="472" width="60" height="40" as="geometry"/>
                </mxCell>
                <mxCell id="umGk_1h2bwM0Oz5YRKmP-22" value="" style="shape=cylinder3;whiteSpace=wrap;html=1;boundedLbl=1;backgroundOutline=1;size=15;container=0;fontSize=22;fillColor=#E6E6E6;strokeColor=#000000;fillStyle=solid;" parent="8" vertex="1">
                    <mxGeometry x="520" y="462" width="60" height="40" as="geometry"/>
                </mxCell>
                <mxCell id="umGk_1h2bwM0Oz5YRKmP-24" value="" style="shape=cylinder3;whiteSpace=wrap;html=1;boundedLbl=1;backgroundOutline=1;size=15;container=0;fontSize=22;fillColor=#E6E6E6;strokeColor=#000000;fillStyle=solid;" parent="8" vertex="1">
                    <mxGeometry x="680" y="472" width="60" height="40" as="geometry"/>
                </mxCell>
                <mxCell id="umGk_1h2bwM0Oz5YRKmP-25" value="" style="shape=cylinder3;whiteSpace=wrap;html=1;boundedLbl=1;backgroundOutline=1;size=15;container=0;fontSize=22;fillColor=#E6E6E6;strokeColor=#000000;fillStyle=solid;" parent="8" vertex="1">
                    <mxGeometry x="680" y="462" width="60" height="40" as="geometry"/>
                </mxCell>
                <mxCell id="umGk_1h2bwM0Oz5YRKmP-26" value="" style="shape=cylinder3;whiteSpace=wrap;html=1;boundedLbl=1;backgroundOutline=1;size=15;container=0;fontSize=22;fillColor=#E6E6E6;strokeColor=#000000;fillStyle=solid;" parent="8" vertex="1">
                    <mxGeometry x="680" y="442" width="60" height="40" as="geometry"/>
                </mxCell>
                <mxCell id="umGk_1h2bwM0Oz5YRKmP-27" value="" style="endArrow=classic;html=1;rounded=0;exitX=0.5;exitY=0;exitDx=0;exitDy=0;exitPerimeter=0;entryX=0.5;entryY=1;entryDx=0;entryDy=0;fontSize=22;strokeColor=#000000;" parent="8" source="umGk_1h2bwM0Oz5YRKmP-18" target="umGk_1h2bwM0Oz5YRKmP-15" edge="1">
                    <mxGeometry width="50" height="50" relative="1" as="geometry">
                        <mxPoint x="680" y="122" as="sourcePoint"/>
                        <mxPoint x="730" y="72" as="targetPoint"/>
                    </mxGeometry>
                </mxCell>
                <mxCell id="umGk_1h2bwM0Oz5YRKmP-28" value="" style="endArrow=classic;html=1;rounded=0;exitX=0.5;exitY=1;exitDx=0;exitDy=0;entryX=0.5;entryY=0;entryDx=0;entryDy=0;entryPerimeter=0;fontSize=22;strokeColor=#000000;" parent="8" source="umGk_1h2bwM0Oz5YRKmP-16" edge="1">
                    <mxGeometry width="50" height="50" relative="1" as="geometry">
                        <mxPoint x="400" y="452" as="sourcePoint"/>
                        <mxPoint x="550" y="442" as="targetPoint"/>
                    </mxGeometry>
                </mxCell>
                <mxCell id="umGk_1h2bwM0Oz5YRKmP-29" value="" style="endArrow=classic;html=1;rounded=0;exitX=0.5;exitY=1;exitDx=0;exitDy=0;entryX=0.5;entryY=0;entryDx=0;entryDy=0;entryPerimeter=0;fontSize=22;strokeColor=#000000;" parent="8" source="umGk_1h2bwM0Oz5YRKmP-17" target="umGk_1h2bwM0Oz5YRKmP-26" edge="1">
                    <mxGeometry width="50" height="50" relative="1" as="geometry">
                        <mxPoint x="680" y="122" as="sourcePoint"/>
                        <mxPoint x="710" y="432" as="targetPoint"/>
                    </mxGeometry>
                </mxCell>
                <mxCell id="umGk_1h2bwM0Oz5YRKmP-30" value="XWCApp" style="text;html=1;align=center;verticalAlign=middle;whiteSpace=wrap;rounded=0;fontSize=22;fontColor=#3399FF;container=0;" parent="8" vertex="1">
                    <mxGeometry x="100" width="110" height="30" as="geometry"/>
                </mxCell>
                <mxCell id="6" value="" style="shape=cylinder3;whiteSpace=wrap;html=1;boundedLbl=1;backgroundOutline=1;size=15;container=0;fontSize=22;fillColor=#E6E6E6;strokeColor=#000000;fillStyle=solid;" vertex="1" parent="8">
                    <mxGeometry x="520" y="442" width="60" height="40" as="geometry"/>
                </mxCell>
                <mxCell id="7" value="device" style="ellipse;shape=doubleEllipse;whiteSpace=wrap;html=1;fillColor=#FF9933;fillStyle=solid;fontSize=22;fontColor=#000000;strokeWidth=3;strokeColor=#CC6600;" vertex="1" parent="8">
                    <mxGeometry x="100" y="570" width="220" height="70" as="geometry"/>
                </mxCell>
                <mxCell id="umGk_1h2bwM0Oz5YRKmP-13" value="" style="endArrow=classic;startArrow=classic;html=1;rounded=0;entryX=0.5;entryY=1;entryDx=0;entryDy=0;fontColor=#000000;strokeColor=#CC6600;strokeWidth=3;labelBackgroundColor=none;fontSize=22;exitX=0.5;exitY=0;exitDx=0;exitDy=0;" parent="8" source="7" target="umGk_1h2bwM0Oz5YRKmP-10" edge="1">
                    <mxGeometry width="50" height="50" relative="1" as="geometry">
                        <mxPoint x="270" y="560" as="sourcePoint"/>
                        <mxPoint x="510" y="120" as="targetPoint"/>
                    </mxGeometry>
                </mxCell>
            </root>
        </mxGraphModel>
    </diagram>
</mxfile>
